# xmcd CD database file
#
# Track frame offsets:
#	150
#	18924
#	48105
#	71003
#	97725
#	167176
#	186821
#	210875
#	232547
#
# Disc length: 3651 seconds
#
# Revision: 0
# Processed by: cddbd v1.5.2PL0 Copyright (c) Steve Scherf et al.
# Submitted via: CDex 1.51
#
DISCID=5e0e4109
DTITLE=Todd Wolfe - Why Thank You Very Much - Live -
DYEAR=1900
DGENRE=Blues
TTITLE0=Forty Four
TTITLE1=Got To Get Better In A Little While
TTITLE2=Heaven
TTITLE3=Need Your Love So Bad
TTITLE4=Shame
TTITLE5=The Great Liberator
TTITLE6=Who's That coming
TTITLE7=Woke Up This Morning
TTITLE8=Wolfe - Cissy Strut
EXTD=
EXTT0=
EXTT1=
EXTT2=
EXTT3=
EXTT4=
EXTT5=
EXTT6=
EXTT7=
EXTT8=
PLAYORDER=
